<?xml version="1.0" encoding="utf-8"?>
<!-- Generator: Adobe Illustrator 17.0.0, SVG Export Plug-In . SVG Version: 6.00 Build 0)  -->
<!DOCTYPE svg PUBLIC "-//W3C//DTD SVG 1.1//EN" "http://www.w3.org/Graphics/SVG/1.1/DTD/svg11.dtd">
<svg version="1.1" id="Layer_1" xmlns="http://www.w3.org/2000/svg" xmlns:xlink="http://www.w3.org/1999/xlink" x="0px" y="0px"
	 width="612px" height="518.766px" viewBox="0 139.008 612 518.766" enable-background="new 0 139.008 612 518.766"
	 xml:space="preserve">
<path d="M399.234,139.008l-13.148,14.344l-32.273,34.066h-49.605h-19.125v19.125v47.812l-32.871,34.664l-13.148,13.746
	l13.148,13.148l28.688,28.688L57.973,568.125l-13.746,13.746l13.746,13.148l49.008,49.008l13.746,13.746l13.148-13.746
	l223.523-222.926l28.688,28.688l13.148,13.148l13.746-13.148l34.664-32.871h47.812h19.125v-19.125v-49.605l34.066-32.273
	l14.344-13.148l-13.746-13.746l-34.664-34.664v-47.812v-19.125h-19.125h-47.812l-34.664-34.664L399.234,139.008z M399.832,193.992
	l26.297,26.297l5.977,5.379h7.77h36.457v36.457v7.77l5.379,5.977l26.297,26.297l-25.699,24.504l-5.977,5.379v8.367v38.25h-36.457
	h-7.77l-5.379,5.379l-26.895,25.699l-16.137-16.137l73.512-72.914l13.746-13.148l-13.746-13.746l-49.008-49.008l-13.148-13.148
	l-13.746,13.148l-72.914,73.512l-16.137-16.137l25.699-26.895l5.379-5.379v-7.77v-36.457h38.25h8.367l5.379-5.977L399.832,193.992z
	 M395.051,285.434l21.516,22.113l-295.84,295.84l-22.113-21.516L395.051,285.434z M363.375,491.625v19.125H344.25V549h19.125v19.125
	h38.25V549h19.125v-38.25h-19.125v-19.125H363.375z M478.125,529.875v38.25h-38.25v38.25h38.25v38.25h38.25v-38.25h38.25v-38.25
	h-38.25v-38.25H478.125z"/>
</svg>
